<svg xmlns="http://www.w3.org/2000/svg" height="800" width="1200" viewBox="-4.8 -8 41.6 48"><path fill="#28a8ea" d="M11.5502 9.7169a.4163.4163 0 01-.0568-.4935.41.41 0 01.0632-.083L20.085.5988a.834.834 0 011.2025.0235 22.6207 22.6207 0 015.2527 9.5451L21.3781 16l-7.6771-2.404a9.2586 9.2586 0 00-2.1508-3.8791z"/><path fill="#0078d4" d="M30.6272 9.9618a.832.832 0 00-1.0257-.6118l-15.9018 4.2475a9.3788 9.3788 0 01.003 4.8345l5.3035 6.6067 7.5488-3.1521 3.0423.8177a.832.832 0 001.0269-.611 26.868 26.868 0 00.003-12.1316z"/><path fill="#0358a7" d="M13.7028 18.4318a9.2617 9.2617 0 01-2.1295 3.8745.417.417 0 00.0061.5836l8.525 8.512a.8335.8335 0 001.1998-.0227 22.5498 22.5498 0 005.251-9.4928z"/><path opacity=".1" d="M18 24.6666V8.3333A1.3373 1.3373 0 0016.6666 7h-2.994l-2.116 2.1193a.4081.4081 0 00-.0632.083.4162.4162 0 00.0568.4935 9.2587 9.2587 0 012.1508 3.8792l.0034.0002-.0047.0013a9.3823 9.3823 0 01.0031 4.8345 9.2197 9.2197 0 01-.4147 1.2086 9.2774 9.2774 0 01-1.7148 2.6657.417.417 0 00.0062.5837L14.7154 26h1.9512A1.3373 1.3373 0 0018 24.6666z"/><path opacity=".2" d="M17 25.6666V9.3333A1.3373 1.3373 0 0015.6666 8h-2.9924l-1.1176 1.1193a.4081.4081 0 00-.0632.083.4162.4162 0 00.0568.4935 9.2587 9.2587 0 012.1508 3.8792l.0034.0002-.0047.0013a9.3823 9.3823 0 01.0031 4.8345 9.2197 9.2197 0 01-.4147 1.2086 9.2774 9.2774 0 01-1.7148 2.6657.417.417 0 00.0062.5837l4.1362 4.1298A1.3373 1.3373 0 0017 25.6666z"/><path opacity=".2" d="M17 23.6666V9.3333A1.3373 1.3373 0 0015.6666 8h-2.9924l-1.1176 1.1193a.4081.4081 0 00-.0632.083.4162.4162 0 00.0568.4935 9.2587 9.2587 0 012.1508 3.8792l.0034.0002-.0047.0013a9.3823 9.3823 0 01.0031 4.8345 9.2197 9.2197 0 01-.4147 1.2086 9.2774 9.2774 0 01-1.7148 2.6657.417.417 0 00.0062.5837L13.714 25h1.9527A1.3373 1.3373 0 0017 23.6666z"/><path opacity=".2" d="M16 23.6666V9.3333A1.3373 1.3373 0 0014.6666 8h-1.9924l-1.1176 1.1193a.4081.4081 0 00-.0632.083.4162.4162 0 00.0568.4935 9.2587 9.2587 0 012.1508 3.8792l.0034.0002-.0047.0013a9.3823 9.3823 0 01.0031 4.8345 9.2197 9.2197 0 01-.4147 1.2086 9.2774 9.2774 0 01-1.7148 2.6657.417.417 0 00.0062.5837L13.714 25h.9527A1.3373 1.3373 0 0016 23.6666z"/><path fill="#0078d4" d="M1.3333 8h13.3334A1.3333 1.3333 0 0116 9.3333v13.3334A1.3333 1.3333 0 0114.6667 24H1.3333A1.3333 1.3333 0 010 22.6667V9.3333A1.3333 1.3333 0 011.3333 8z"/><path fill="#fff" d="M7.8259 15.2678a3.361 3.361 0 01.2231.5997h.021a2.8445 2.8445 0 01.2162-.5858l2.0226-3.8095A.8892.8892 0 0111.0942 11a.8892.8892 0 01.771 1.3322L9.0668 17.203a.8891.8891 0 00-.1182.443v2.4649A.8892.8892 0 018.0594 21h-.1811a.8892.8892 0 01-.8892-.8892V17.675a.8893.8893 0 00-.1129-.4336l-2.7467-4.9186A.8892.8892 0 014.9058 11h.1748a.8892.8892 0 01.7902.4813z"/><path fill="none" d="M0 0h32v32H0z"/></svg>